<?xml version="1.0" standalone="no"?>
<!DOCTYPE svg PUBLIC "-//W3C//DTD SVG 20010904//EN"
 "http://www.w3.org/TR/2001/REC-SVG-20010904/DTD/svg10.dtd">
<svg version="1.0" xmlns="http://www.w3.org/2000/svg"
 width="260.000000pt" height="260.000000pt" viewBox="0 0 260.000000 260.000000"
 preserveAspectRatio="xMidYMid meet">
<metadata>
Created by potrace 1.14, written by Peter Selinger 2001-2017
</metadata>
<g transform="translate(0.000000,260.000000) scale(0.100000,-0.100000)"
fill="#000000" stroke="none">
<path d="M1500 2461 c0 -5 17 -23 39 -40 65 -51 93 -141 66 -208 -33 -78 -230
-312 -249 -293 -17 17 -11 166 11 265 35 157 14 167 -109 48 l-91 -87 -19 24
c-45 57 -59 70 -73 70 -21 0 -19 -26 5 -64 10 -18 29 -72 40 -122 12 -49 34
-113 51 -141 16 -29 28 -53 26 -53 -13 0 -465 -164 -475 -172 -17 -15 0 -34
58 -63 58 -29 157 -43 230 -33 49 8 126 45 220 107 35 24 103 27 124 5 16 -16
16 -18 -6 -41 -24 -26 -44 -38 -127 -78 -58 -27 -60 -38 -9 -39 44 -1 45 -18
2 -55 -30 -27 -38 -30 -51 -19 -10 8 -13 23 -10 44 4 22 1 34 -8 38 -16 6 -55
-38 -56 -63 0 -9 -2 -25 -4 -36 -16 -79 -30 -509 -20 -599 7 -73 38 -129 89
-164 42 -29 73 -28 149 4 49 21 79 26 146 27 81 1 84 0 107 -29 34 -41 96
-162 87 -167 -5 -2 -64 4 -133 14 -69 10 -143 20 -165 23 -44 7 -137 25 -258
50 -74 16 -248 64 -254 70 -2 1 1 23 5 48 20 105 -10 174 -124 290 -48 49 -74
84 -74 98 0 13 21 47 48 77 93 107 101 139 53 215 -50 78 -176 139 -314 152
-27 2 -57 12 -68 22 -18 17 -21 17 -37 1 -27 -28 -22 -113 11 -164 35 -55 72
-73 155 -76 66 -2 88 -12 73 -32 -22 -29 -44 -108 -46 -168 -6 -123 40 -219
129 -271 102 -60 62 -150 -67 -151 -34 0 -72 4 -84 8 -50 18 -73 -94 -37 -176
23 -51 70 -66 157 -47 34 7 104 15 154 17 117 6 209 -12 395 -77 194 -69 323
-98 503 -116 39 -3 97 -15 130 -26 73 -24 110 -25 172 -4 26 8 88 25 136 36
97 22 222 76 249 106 28 32 26 57 -5 72 -22 10 -85 13 -280 12 -139 0 -265 -2
-282 -3 -35 -2 -36 5 -8 78 49 128 51 155 40 672 -6 270 -5 269 -83 328 -30
23 -120 65 -139 65 -3 0 -16 0 -29 0 -19 0 -22 4 -19 24 3 14 -2 39 -11 57 -9
18 -14 34 -12 36 2 2 39 10 82 17 93 17 291 18 386 3 72 -11 98 -2 98 33 0 23
-57 83 -99 105 -33 17 -101 17 -176 1 -11 -2 -51 -7 -90 -11 -38 -4 -85 -8
-102 -10 -18 -2 -33 -1 -33 4 0 11 100 97 179 154 86 62 101 81 101 126 0 66
-89 175 -178 217 -74 35 -192 56 -192 35z m95 -934 c25 -39 38 -179 37 -413 0
-223 -5 -291 -21 -307 -6 -6 -27 5 -51 24 -37 30 -47 33 -103 32 -34 -1 -98
-9 -141 -17 -44 -9 -81 -15 -82 -13 -1 1 -4 26 -6 55 -5 50 -4 52 21 53 52 1
94 10 164 33 40 13 92 27 117 31 79 13 100 51 56 102 -21 24 -32 28 -78 28
-55 0 -113 -7 -207 -25 -79 -15 -81 -14 -81 25 0 33 2 35 33 35 18 0 57 7 87
15 30 9 97 27 149 40 52 14 100 30 108 36 23 20 15 68 -16 100 -37 37 -72 38
-195 4 -50 -13 -106 -27 -124 -30 -31 -5 -32 -4 -30 25 1 18 11 36 23 44 84
54 276 145 307 146 10 0 24 -11 33 -23z"/>
<path d="M523 2113 c-7 -3 -13 -12 -13 -22 0 -16 64 -102 99 -131 20 -18 34
-60 23 -75 -4 -6 -20 -17 -36 -25 -32 -16 -64 -63 -72 -104 -6 -34 4 -33 66 9
55 37 158 72 240 82 68 8 84 21 76 61 -9 36 -78 112 -127 137 -18 10 -55 19
-80 20 -25 1 -66 11 -90 22 -57 27 -71 31 -86 26z"/>
</g>
</svg>
