<?xml version="1.0" standalone="no"?>
<!DOCTYPE svg PUBLIC "-//W3C//DTD SVG 20010904//EN"
 "http://www.w3.org/TR/2001/REC-SVG-20010904/DTD/svg10.dtd">
<svg version="1.0" xmlns="http://www.w3.org/2000/svg"
 width="700.000000pt" height="700.000000pt" viewBox="0 0 700.000000 700.000000"
 preserveAspectRatio="xMidYMid meet">
<metadata>
Created by potrace 1.14, written by Peter Selinger 2001-2017
</metadata>
<g transform="translate(0.000000,700.000000) scale(0.100000,-0.100000)"
fill="#000000" stroke="none">
<path d="M4053 6643 c-7 -2 -13 -10 -13 -16 0 -6 49 -58 109 -116 92 -90 114
-117 144 -181 43 -93 57 -155 52 -245 -5 -114 -47 -197 -216 -421 -169 -224
-381 -455 -447 -487 -29 -14 -40 -3 -50 53 -12 69 -5 330 12 430 3 14 7 45 10
69 3 24 17 102 31 175 81 414 30 423 -345 64 -63 -61 -134 -128 -156 -150
l-42 -40 -81 101 c-117 145 -179 185 -200 129 -10 -28 -1 -61 38 -135 28 -55
86 -208 95 -256 33 -162 106 -368 177 -501 52 -99 56 -112 37 -113 -31 -2
-1033 -363 -1204 -434 -63 -26 -74 -35 -74 -55 0 -30 38 -66 119 -112 147 -82
317 -121 541 -122 194 -2 337 55 697 277 137 84 286 94 366 25 28 -25 20 -57
-25 -104 -64 -66 -104 -92 -261 -170 -155 -77 -214 -115 -200 -129 5 -5 40
-12 78 -15 79 -6 105 -17 105 -44 0 -40 -141 -170 -184 -170 -43 0 -61 34 -62
119 -1 112 0 111 -32 111 -35 0 -93 -55 -121 -114 -11 -23 -22 -68 -25 -101
-3 -33 -7 -69 -9 -80 -5 -20 -12 -94 -22 -215 -5 -65 -9 -125 -22 -400 -4 -80
-7 -338 -7 -575 -1 -420 0 -432 22 -510 32 -110 77 -189 148 -260 77 -77 157
-117 231 -116 29 0 57 2 62 5 4 3 22 8 38 11 17 3 82 25 145 49 159 63 197 69
418 70 160 1 188 -4 222 -37 76 -72 235 -346 269 -461 l8 -28 -93 6 c-51 4
-103 9 -117 11 -13 2 -91 13 -174 25 -82 11 -161 22 -175 25 -14 2 -47 6 -75
10 -73 9 -109 14 -210 31 -49 8 -103 17 -120 20 -16 2 -50 9 -75 14 -25 5 -56
12 -70 14 -14 3 -81 16 -150 31 -69 14 -136 28 -150 30 -74 13 -229 49 -305
69 -33 9 -68 19 -77 21 -120 28 -371 105 -386 119 -10 10 -10 31 3 114 46 308
-18 465 -318 779 -138 143 -187 204 -207 258 -14 36 13 90 98 195 37 46 91
113 120 149 29 36 69 99 89 138 33 67 35 78 31 137 -14 165 -183 352 -420 464
-131 61 -318 114 -453 127 -113 11 -221 45 -240 75 -32 51 -96 10 -121 -77
-17 -59 -15 -157 6 -243 17 -67 69 -158 123 -212 86 -86 157 -110 371 -123
106 -7 176 -22 183 -42 3 -7 -11 -46 -30 -86 -66 -132 -106 -329 -100 -493 9
-286 120 -499 331 -636 92 -59 125 -90 151 -144 27 -53 24 -111 -6 -153 -31
-42 -109 -89 -171 -103 -70 -16 -268 -15 -343 1 -42 9 -62 9 -81 1 -82 -38
-112 -253 -58 -418 59 -184 179 -230 460 -176 14 2 41 7 60 9 19 3 44 8 55 10
124 27 569 27 695 0 14 -3 51 -10 82 -15 98 -18 262 -67 568 -169 382 -128
562 -181 756 -221 167 -34 195 -39 312 -55 20 -3 51 -7 67 -10 17 -2 50 -7 75
-9 183 -21 233 -27 250 -31 8 -2 35 -7 59 -10 25 -4 106 -24 180 -46 99 -29
162 -41 231 -45 97 -6 104 -5 295 51 49 15 356 94 385 100 38 8 195 62 291
101 244 98 349 180 352 270 2 66 -60 101 -195 112 -51 4 -398 7 -770 6 -640
-1 -678 0 -683 17 -8 24 0 52 56 207 52 142 76 227 85 295 3 23 7 48 9 55 24
71 23 1046 0 1737 -9 260 -27 378 -65 440 -47 77 -182 177 -335 250 -119 56
-153 66 -234 70 -40 3 -76 7 -79 10 -3 2 -6 35 -8 72 -1 48 -11 91 -34 147
-35 90 -37 88 54 107 34 7 66 13 71 14 65 15 202 31 340 40 102 7 494 7 570 0
84 -7 168 -16 200 -21 62 -10 161 -11 190 -3 38 11 63 37 69 74 7 40 -32 105
-111 181 -130 126 -189 151 -354 152 -68 0 -157 -8 -219 -19 -58 -10 -128 -21
-156 -24 -28 -2 -67 -7 -85 -9 -19 -3 -63 -8 -99 -11 -36 -3 -78 -8 -95 -10
-105 -13 -214 -16 -220 -5 -7 12 69 90 170 175 33 28 62 52 65 55 7 8 116 92
265 205 72 55 147 115 167 133 145 134 93 347 -141 583 -93 94 -163 145 -261
192 -72 34 -222 84 -285 93 -16 3 -54 9 -84 14 -58 11 -108 12 -128 3z m207
-2499 c17 -15 37 -39 46 -55 21 -41 52 -197 59 -299 4 -47 8 -95 10 -108 23
-143 23 -1253 0 -1372 -2 -10 -7 -39 -10 -64 -9 -61 -25 -81 -57 -73 -25 7
-120 68 -148 95 -67 67 -229 71 -580 16 -52 -8 -115 -20 -140 -25 -25 -6 -61
-12 -82 -14 l-36 -4 -6 47 c-3 26 -8 85 -12 133 -7 103 -3 108 87 114 138 8
213 24 409 86 58 18 110 34 115 35 6 1 46 12 90 23 44 11 91 22 105 24 142 26
220 79 220 151 0 59 -76 161 -139 186 -49 20 -277 17 -421 -5 -50 -8 -317 -54
-366 -64 -48 -9 -93 -6 -107 8 -5 5 -11 37 -12 72 -3 78 14 99 83 100 26 0 58
2 72 5 75 13 146 29 240 54 536 144 612 169 637 206 36 56 7 178 -61 247 -48
50 -90 69 -163 75 -71 5 -129 -4 -328 -54 -77 -20 -147 -37 -155 -39 -8 -2
-53 -13 -100 -25 -114 -29 -190 -37 -191 -19 -9 105 15 149 117 212 141 88
488 260 654 324 104 39 129 41 170 7z"/>
<path d="M1413 5689 c-39 -14 -46 -44 -24 -94 26 -58 115 -176 207 -274 80
-85 113 -145 114 -203 0 -30 -6 -41 -37 -66 -21 -16 -52 -36 -69 -45 -94 -48
-194 -209 -194 -314 0 -26 4 -31 19 -28 25 5 76 31 126 65 168 114 419 203
690 245 133 21 181 42 193 87 12 48 4 82 -37 147 -66 108 -207 247 -296 294
-43 22 -131 46 -195 53 -114 12 -208 37 -310 81 -121 53 -157 63 -187 52z"/>
</g>
</svg>
